<?xml version="1.0" encoding="utf-8"?>
<!-- Generated by IcoMoon.io -->
<!DOCTYPE svg PUBLIC "-//W3C//DTD SVG 1.1//EN" "http://www.w3.org/Graphics/SVG/1.1/DTD/svg11.dtd">
<svg version="1.1" xmlns="http://www.w3.org/2000/svg" xmlns:xlink="http://www.w3.org/1999/xlink" width="16" height="16" viewBox="0 0 16 16">
<path d="M6.667 0.667q1.219 0 2.331 0.477t1.914 1.279 1.279 1.914 0.477 2.331q0 1.047-0.341 2.005t-0.971 1.74l3.786 3.781q0.193 0.193 0.193 0.474 0 0.286-0.19 0.477t-0.477 0.19q-0.281 0-0.474-0.193l-3.781-3.786q-0.781 0.63-1.74 0.971t-2.005 0.341q-1.219 0-2.331-0.477t-1.914-1.279-1.279-1.914-0.477-2.331 0.477-2.331 1.279-1.914 1.914-1.279 2.331-0.477zM6.667 2q-0.948 0-1.813 0.37t-1.49 0.995-0.995 1.49-0.37 1.813 0.37 1.813 0.995 1.49 1.49 0.995 1.813 0.37 1.812-0.37 1.49-0.995 0.995-1.49 0.37-1.813-0.37-1.813-0.995-1.49-1.49-0.995-1.813-0.37z"></path>
</svg>
